<svg width="36" height="36" viewBox="0 0 36 36" fill="none" xmlns="http://www.w3.org/2000/svg">
<g clip-path="url(#clip0_214_1428)">
<path d="M35.7129 17.9658C35.7129 8.04333 27.7187 0 17.8587 0C7.99423 0.00223178 0 8.04333 0 17.9681C0 26.9331 6.53019 34.3649 15.0645 35.7129V23.1592H10.534V17.9681H15.069V14.0066C15.069 9.50515 17.7359 7.01895 21.8134 7.01895C23.7684 7.01895 25.8105 7.36934 25.8105 7.36934V11.7883H23.5587C21.3425 11.7883 20.6507 13.1742 20.6507 14.5958V17.9658H25.6007L24.8107 23.1569H20.6484V35.7107C29.1827 34.3627 35.7129 26.9309 35.7129 17.9658Z" fill="#111C7A"/>
</g>
<defs>
<clipPath id="clip0_214_1428">
<rect width="35.7129" height="35.7129" fill="white"/>
</clipPath>
</defs>
</svg>
