<svg width="36" height="35" viewBox="0 0 36 35" fill="none" xmlns="http://www.w3.org/2000/svg">
<path d="M17.8517 11.5879C14.5728 11.5879 11.8971 14.1934 11.8971 17.3861C11.8971 20.5787 14.5728 23.1842 17.8517 23.1842C21.1305 23.1842 23.8062 20.5787 23.8062 17.3861C23.8062 14.1934 21.1305 11.5879 17.8517 11.5879ZM35.7109 17.3861C35.7109 14.985 35.7333 12.6057 35.5948 10.2091C35.4563 7.42525 34.8041 4.95462 32.7135 2.91896C30.6185 0.878956 28.0857 0.24825 25.2268 0.113409C22.761 -0.0214313 20.3175 0.000317229 17.8561 0.000317229C15.3903 0.000317229 12.9468 -0.0214313 10.4855 0.113409C7.62659 0.24825 5.0893 0.883305 2.99872 2.91896C0.903673 4.95897 0.255951 7.42525 0.117472 10.2091C-0.0210066 12.6101 0.0013287 14.9894 0.0013287 17.3861C0.0013287 19.7827 -0.0210066 22.1664 0.117472 24.5631C0.255951 27.3469 0.90814 29.8175 2.99872 31.8531C5.09377 33.8931 7.62659 34.5239 10.4855 34.6587C12.9513 34.7935 15.3948 34.7718 17.8561 34.7718C20.3219 34.7718 22.7654 34.7935 25.2268 34.6587C28.0857 34.5239 30.623 33.8888 32.7135 31.8531C34.8086 29.8131 35.4563 27.3469 35.5948 24.5631C35.7377 22.1664 35.7109 19.7871 35.7109 17.3861V17.3861ZM17.8517 26.3073C12.7816 26.3073 8.68974 22.323 8.68974 17.3861C8.68974 12.4491 12.7816 8.46483 17.8517 8.46483C22.9218 8.46483 27.0136 12.4491 27.0136 17.3861C27.0136 22.323 22.9218 26.3073 17.8517 26.3073ZM27.3888 10.183C26.205 10.183 25.2491 9.25212 25.2491 8.09945C25.2491 6.94678 26.205 6.01595 27.3888 6.01595C28.5726 6.01595 29.5285 6.94678 29.5285 8.09945C29.5289 8.37316 29.4738 8.64424 29.3664 8.89718C29.259 9.15012 29.1014 9.37994 28.9026 9.57348C28.7038 9.76702 28.4678 9.92047 28.2081 10.0251C27.9483 10.1296 27.6699 10.1833 27.3888 10.183V10.183Z" fill="#111C7A"/>
</svg>
